<svg xmlns="http://www.w3.org/2000/svg" width="375" viewBox="0 0 375 375" height="375" version="1.0"><defs><clipPath id="a"><path d="M 131 32.34375 L 364 32.34375 L 364 192 L 131 192 Z M 131 32.34375"/></clipPath><clipPath id="b"><path d="M 131 32.34375 L 251 32.34375 L 251 123 L 131 123 Z M 131 32.34375"/></clipPath></defs><path fill="#F68412" d="M 345.125 207.015625 L 199.457031 253.109375 C 200.769531 245.191406 204.601562 232.929688 215.738281 228.585938 L 218.359375 227.730469 L 218.378906 227.722656 L 270.003906 210.878906 L 308.078125 198.445312 C 308.125 198.484375 308.160156 198.511719 308.207031 198.542969 C 315.285156 204.683594 324.519531 208.402344 334.628906 208.402344 C 338.257812 208.402344 341.777344 207.921875 345.125 207.015625"/><path fill="#F68412" d="M 158.941406 265.921875 L 103.582031 283.441406 C 86.722656 288.777344 73.433594 301.839844 67.800781 318.601562 L 56.488281 352.292969 C 55.109375 356.40625 51.375 358.449219 47.71875 358.277344 L 47.71875 340.960938 C 47.71875 327.433594 51.390625 316.414062 51.832031 315.152344 L 55.199219 305.539062 C 61.324219 288.050781 75.25 274.425781 92.867188 268.671875 L 128.050781 257.199219 C 143.867188 253.558594 153.316406 258.464844 158.941406 265.921875"/><path fill="#F5D019" d="M 299.269531 201.328125 L 270.003906 210.878906 L 218.378906 227.722656 L 218.359375 227.730469 L 215.738281 228.585938 C 198.777344 235.207031 198.761719 260.195312 198.761719 260.195312 L 198.761719 291.363281 C 198.761719 294.089844 196.554688 296.300781 193.828125 296.300781 C 191.109375 296.300781 188.902344 294.089844 188.902344 291.363281 L 188.902344 256.449219 C 188.902344 256.449219 187.835938 248.5625 183.046875 248.5625 C 178.261719 248.5625 177.0625 260.195312 177.0625 260.195312 L 177.0625 341.4375 C 177.0625 344.167969 174.851562 346.375 172.125 346.375 C 169.402344 346.375 167.191406 344.167969 167.191406 341.4375 L 167.191406 293.886719 C 166.921875 283.707031 163.433594 249.050781 128.050781 257.199219 L 92.867188 268.671875 C 75.25 274.425781 61.324219 288.050781 55.199219 305.539062 L 51.832031 315.152344 C 51.390625 316.414062 47.71875 327.433594 47.71875 340.960938 L 47.71875 370.222656 C 47.71875 372.949219 45.511719 375.160156 42.785156 375.160156 C 40.0625 375.160156 37.847656 372.949219 37.847656 370.222656 L 37.847656 363.613281 C 37.894531 351.851562 31.5 336.511719 31.5 336.511719 L 12.355469 285.519531 C 0.0117188 252.667969 8.511719 215.613281 33.925781 191.417969 L 131.347656 109.359375 C 131.347656 109.359375 131.871094 109.003906 132.695312 108.292969 C 133.523438 107.589844 134.65625 106.515625 135.886719 105.089844 C 140.089844 109.800781 145.179688 113.671875 150.898438 116.449219 C 151.316406 116.660156 151.757812 116.824219 152.210938 116.960938 C 155.675781 117.964844 159.234375 119.09375 162.773438 120.324219 C 224.027344 141.488281 288.394531 191.5625 296.121094 197.675781 C 297.109375 198.953125 298.167969 200.167969 299.269531 201.328125"/><path fill="#F5DC37" d="M 77.777344 216.832031 C 127.46875 219.09375 230.9375 197.492188 212.496094 142.679688 C 196.5 134.0625 179.523438 126.113281 162.777344 120.324219 C 159.230469 119.09375 155.671875 117.960938 152.210938 116.957031 C 151.757812 116.824219 151.316406 116.660156 150.898438 116.449219 C 145.179688 113.667969 140.089844 109.800781 135.886719 105.09375 C 135.886719 105.09375 135.886719 105.09375 135.886719 105.089844 C 133.441406 107.949219 131.34375 109.363281 131.34375 109.363281 L 33.925781 191.421875 C 8.511719 215.617188 0.015625 252.667969 12.351562 285.519531 C 12.351562 285.519531 28.085938 214.574219 77.777344 216.832031"/><path fill="#F04C1C" d="M 138.054688 255.964844 C 135.042969 255.964844 131.71875 256.351562 128.054688 257.195312 L 92.871094 268.675781 C 75.253906 274.421875 61.324219 288.050781 55.199219 305.539062 L 51.832031 315.152344 C 51.390625 316.417969 47.71875 327.4375 47.71875 340.960938 L 47.71875 358.273438 C 50.972656 358.425781 54.292969 356.816406 55.957031 353.5625 L 55.957031 340.960938 C 55.957031 328.558594 59.464844 318.277344 59.613281 317.84375 L 62.96875 308.265625 C 68.21875 293.300781 80.347656 281.425781 95.421875 276.507812 L 130.246094 265.144531 C 133.054688 264.523438 135.675781 264.207031 138.054688 264.207031 C 143.164062 264.207031 147.195312 265.644531 150.367188 268.640625 L 158.941406 265.929688 C 154.613281 260.199219 148.046875 255.964844 138.054688 255.964844"/><path fill="#F4ED57" d="M 162.777344 120.324219 C 159.230469 119.09375 155.671875 117.960938 152.210938 116.957031 C 151.757812 116.824219 151.316406 116.660156 150.898438 116.449219 C 145.179688 113.667969 140.089844 109.800781 135.886719 105.09375 C 135.886719 105.09375 135.886719 105.09375 135.886719 105.089844 C 133.441406 107.949219 131.34375 109.363281 131.34375 109.363281 L 74.9375 156.878906 C 86.769531 167.304688 105.296875 174.027344 126.140625 174.027344 C 160.984375 174.027344 189.382812 155.257812 190.765625 131.75 C 181.503906 127.441406 172.105469 123.546875 162.777344 120.324219"/><path fill="#F35E19" d="M 334.625 208.402344 C 321.257812 208.402344 309.410156 201.890625 302.070312 191.875 C 302.070312 191.875 300.554688 190.65625 297.785156 188.511719 C 294.722656 189.332031 291.355469 190.242188 287.730469 191.226562 C 291.933594 194.382812 294.828125 196.648438 296.125 197.675781 C 302.445312 205.878906 311.210938 211.785156 320.972656 214.660156 L 345.398438 206.933594 C 341.964844 207.878906 338.355469 208.402344 334.625 208.402344"/><g clip-path="url(#a)"><path fill="#F7990F" d="M 363.105469 139.46875 C 361.34375 137.707031 359.421875 136.105469 357.351562 134.695312 C 350.875 130.269531 343.050781 127.6875 334.628906 127.6875 C 312.339844 127.6875 294.28125 145.753906 294.28125 168.042969 C 294.28125 173.625 295.410156 178.941406 297.457031 183.769531 C 298.675781 186.65625 300.226562 189.375 302.054688 191.871094 C 300.984375 191 232.085938 135.558594 165.476562 112.542969 C 161.808594 111.269531 158.148438 110.097656 154.5 109.042969 C 141.050781 102.496094 131.78125 88.699219 131.78125 72.730469 C 131.78125 50.441406 149.84375 32.375 172.125 32.375 C 175.789062 32.375 179.335938 32.859375 182.707031 33.78125 L 182.707031 33.773438 C 182.707031 33.773438 182.714844 33.773438 182.730469 33.78125 C 184.371094 34.050781 287.757812 51.472656 363.105469 139.46875"/></g><path fill="#FBD66F" d="M 374.972656 168.042969 C 374.972656 190.335938 356.90625 208.402344 334.628906 208.402344 C 317.917969 208.402344 303.585938 198.25 297.457031 183.769531 C 303.925781 188.191406 311.75 190.777344 320.179688 190.777344 C 342.464844 190.777344 360.527344 172.703125 360.527344 150.417969 C 360.527344 144.835938 359.398438 139.527344 357.351562 134.695312 C 367.984375 141.960938 374.972656 154.183594 374.972656 168.042969"/><path fill="#FCE49D" d="M 360.527344 150.417969 C 360.527344 172.703125 342.464844 190.777344 320.179688 190.777344 C 311.75 190.777344 303.925781 188.191406 297.457031 183.769531 C 295.410156 178.941406 294.28125 173.625 294.28125 168.042969 C 294.28125 145.753906 312.339844 127.6875 334.628906 127.6875 C 343.050781 127.6875 350.875 130.269531 357.351562 134.695312 C 359.398438 139.527344 360.527344 144.835938 360.527344 150.417969"/><path fill="#F14C5D" d="M 220.90625 183.292969 C 220.90625 191.6875 209.304688 198.496094 194.992188 198.496094 C 180.679688 198.496094 169.074219 191.6875 169.074219 183.292969 C 169.074219 174.894531 180.679688 168.089844 194.992188 168.089844 C 209.304688 168.089844 220.90625 174.894531 220.90625 183.292969"/><path fill="#EF3542" d="M 194.992188 198.496094 C 180.679688 198.496094 169.074219 191.6875 169.074219 183.292969 L 169.074219 189.613281 C 169.074219 198.011719 180.679688 204.816406 194.992188 204.816406 C 209.304688 204.816406 220.90625 198.011719 220.90625 189.613281 L 220.90625 183.292969 C 220.90625 191.6875 209.304688 198.496094 194.992188 198.496094"/><path fill="#F14C5D" d="M 102.253906 160.136719 C 102.253906 168.535156 90.652344 175.339844 76.339844 175.339844 C 62.023438 175.339844 50.425781 168.535156 50.425781 160.136719 C 50.425781 151.738281 62.023438 144.933594 76.339844 144.933594 C 90.652344 144.933594 102.253906 151.738281 102.253906 160.136719"/><path fill="#EF3542" d="M 76.339844 175.339844 C 62.023438 175.339844 50.425781 168.535156 50.425781 160.136719 L 50.425781 166.460938 C 50.425781 174.855469 62.023438 181.664062 76.339844 181.664062 C 90.652344 181.664062 102.253906 174.855469 102.253906 166.460938 L 102.253906 160.136719 C 102.253906 168.535156 90.652344 175.339844 76.339844 175.339844"/><path fill="#F14C5D" d="M 110.054688 220.960938 C 110.054688 229.359375 98.453125 236.167969 84.140625 236.167969 C 69.824219 236.167969 58.226562 229.359375 58.226562 220.960938 C 58.226562 212.566406 69.824219 205.757812 84.140625 205.757812 C 98.453125 205.757812 110.054688 212.566406 110.054688 220.960938"/><path fill="#EF3542" d="M 84.140625 236.167969 C 69.824219 236.167969 58.226562 229.359375 58.226562 220.960938 L 58.226562 227.289062 C 58.226562 235.683594 69.824219 242.492188 84.140625 242.492188 C 98.453125 242.492188 110.054688 235.683594 110.054688 227.289062 L 110.054688 220.960938 C 110.054688 229.359375 98.453125 236.167969 84.140625 236.167969"/><path fill="#49B060" d="M 173.195312 230.050781 L 153.882812 230.050781 C 151.816406 230.050781 150.140625 228.375 150.140625 226.308594 C 150.140625 224.238281 151.816406 222.5625 153.882812 222.5625 L 173.195312 222.5625 C 175.269531 222.5625 176.941406 224.238281 176.941406 226.308594 C 176.941406 228.375 175.269531 230.050781 173.195312 230.050781"/><path fill="#49B060" d="M 42.136719 201.304688 C 40.519531 201.304688 39.027344 200.25 38.546875 198.617188 L 33.5625 181.691406 C 32.980469 179.707031 34.117188 177.628906 36.101562 177.042969 C 38.085938 176.457031 40.164062 177.59375 40.75 179.574219 L 45.730469 196.503906 C 46.316406 198.488281 45.179688 200.570312 43.195312 201.152344 C 42.84375 201.257812 42.484375 201.304688 42.136719 201.304688"/><path fill="#49B060" d="M 143.21875 138.707031 C 134.851562 138.707031 130.578125 141.769531 130.433594 142.695312 C 130.578125 143.609375 134.851562 146.671875 143.21875 146.671875 C 151.5625 146.671875 155.835938 143.625 156 142.691406 C 155.835938 141.75 151.566406 138.707031 143.21875 138.707031 Z M 143.21875 154.160156 C 131.472656 154.160156 122.945312 149.335938 122.945312 142.691406 C 122.945312 136.042969 131.472656 131.21875 143.21875 131.21875 C 154.964844 131.21875 163.488281 136.042969 163.488281 142.691406 C 163.488281 149.335938 154.964844 154.160156 143.21875 154.160156"/><path fill="#49B060" d="M 57.964844 264.007812 C 55.792969 264.007812 51.710938 264.921875 46.792969 268.304688 C 39.894531 273.042969 38.105469 277.984375 38.511719 278.832031 C 39.152344 279.503906 44.402344 279.609375 51.296875 274.867188 C 58.179688 270.140625 59.972656 265.210938 59.582031 264.347656 C 59.390625 264.152344 58.832031 264.007812 57.964844 264.007812 Z M 40.289062 286.667969 C 36.820312 286.667969 33.996094 285.484375 32.335938 283.070312 C 31.15625 281.347656 29.683594 277.601562 33.089844 271.804688 C 35.113281 268.371094 38.46875 264.933594 42.550781 262.132812 C 46.632812 259.324219 51.042969 257.421875 54.972656 256.769531 C 61.601562 255.664062 64.574219 258.382812 65.753906 260.105469 C 66.9375 261.824219 68.40625 265.574219 65 271.367188 C 62.980469 274.804688 59.621094 278.238281 55.539062 281.042969 C 50.125 284.761719 44.6875 286.667969 40.289062 286.667969"/><path fill="#B3322D" d="M 39.339844 240.695312 C 39.339844 242.730469 35.828125 244.375 31.5 244.375 C 27.167969 244.375 23.65625 242.730469 23.65625 240.695312 C 23.65625 238.667969 27.167969 234.253906 31.5 234.253906 C 35.828125 234.253906 39.339844 238.667969 39.339844 240.695312"/><path fill="#B3322D" d="M 256.304688 198.320312 C 256.304688 200.351562 252.792969 202 248.464844 202 C 244.136719 202 240.621094 200.351562 240.621094 198.320312 C 240.621094 196.292969 244.136719 191.875 248.464844 191.875 C 252.792969 191.875 256.304688 196.292969 256.304688 198.320312"/><path fill="#BD4C28" d="M 134.53125 193.261719 C 134.53125 195.289062 131.019531 196.9375 126.6875 196.9375 C 122.359375 196.9375 118.851562 195.289062 118.851562 193.261719 C 118.851562 191.230469 122.359375 186.8125 126.6875 186.8125 C 131.019531 186.8125 134.53125 191.230469 134.53125 193.261719"/><path fill="#F7980F" d="M 191.199219 122.878906 C 191.167969 126.554688 190.996094 129.902344 190.878906 131.804688 C 181.578125 127.476562 172.140625 123.558594 162.773438 120.324219 C 159.234375 119.09375 155.675781 117.964844 152.210938 116.960938 C 151.757812 116.824219 151.316406 116.660156 150.898438 116.449219 C 145.179688 113.671875 140.089844 109.800781 135.886719 105.089844 C 137.449219 103.265625 139.148438 100.863281 140.550781 97.855469 C 144.285156 102.550781 149.046875 106.390625 154.5 109.042969 C 158.148438 110.097656 161.808594 111.269531 165.476562 112.542969 C 174.058594 115.503906 182.6875 119.015625 191.199219 122.878906"/><path fill="#F68812" d="M 212.5 142.691406 C 205.449219 138.882812 198.210938 135.214844 190.878906 131.804688 C 190.996094 129.902344 191.167969 126.554688 191.199219 122.878906 C 197.355469 125.664062 203.449219 128.644531 209.433594 131.738281 L 212.5 142.691406"/><path fill="#F47016" d="M 308.09375 198.449219 L 299.25 201.335938 C 298.148438 200.171875 297.09375 198.960938 296.105469 197.679688 C 290.488281 193.238281 254.976562 165.59375 212.484375 142.695312 L 209.414062 131.742188 C 259.832031 157.761719 302.046875 191.882812 302.046875 191.882812 C 303.816406 194.285156 305.839844 196.480469 308.085938 198.445312 L 308.09375 198.449219"/><path fill="#F04C1C" d="M 183.046875 248.5625 C 178.261719 248.5625 177.058594 260.199219 177.058594 260.199219 L 188.894531 256.453125 C 188.894531 256.453125 187.835938 248.5625 183.046875 248.5625"/><g clip-path="url(#b)"><path fill="#F9B417" d="M 250.066406 55.851562 C 212.199219 38.75 183.585938 33.925781 182.730469 33.78125 C 182.714844 33.773438 182.707031 33.773438 182.707031 33.773438 L 182.707031 33.78125 C 179.335938 32.859375 175.789062 32.375 172.125 32.375 C 149.84375 32.375 131.78125 50.441406 131.78125 72.730469 C 131.78125 88.699219 141.050781 102.496094 154.5 109.042969 C 158.148438 110.097656 161.808594 111.269531 165.476562 112.542969 C 173.964844 115.472656 182.488281 118.933594 190.902344 122.738281 C 190.164062 119.300781 189.765625 115.753906 189.765625 112.125 C 189.765625 81.929688 216.492188 57.289062 250.066406 55.851562"/></g><path fill="#F04C1C" d="M 299.25 201.335938 L 270.003906 210.878906 L 218.441406 227.707031 L 218.378906 227.722656 L 218.359375 227.730469 L 215.738281 228.585938 C 204.601562 232.929688 200.777344 245.199219 199.457031 253.109375 L 208.527344 250.242188 C 210.003906 244.78125 212.882812 238.652344 218.546875 236.335938 L 220.394531 235.730469 L 234.800781 231.035156 L 256.855469 223.839844 L 272.558594 218.714844 L 301.820312 209.164062 L 306.507812 207.632812 C 303.902344 205.785156 301.464844 203.679688 299.25 201.335938"/><path fill="#FFF" d="M 171.09375 51.300781 C 171.136719 51.285156 168.839844 51.933594 168.351562 52.117188 C 167.375 52.492188 166.414062 52.929688 165.5 53.433594 C 163.671875 54.441406 162.015625 55.6875 160.65625 57.167969 C 159.980469 57.910156 159.375 58.710938 158.839844 59.5625 C 158.328125 60.425781 157.886719 61.339844 157.523438 62.300781 C 156.828125 64.234375 156.464844 66.367188 156.433594 68.59375 L 156.433594 68.671875 C 156.40625 70.566406 154.847656 72.078125 152.957031 72.050781 C 151.203125 72.023438 149.777344 70.6875 149.597656 68.988281 C 149.289062 66.136719 149.386719 63.140625 150.0625 60.167969 C 150.417969 58.691406 150.90625 57.230469 151.535156 55.816406 C 152.179688 54.414062 152.953125 53.066406 153.84375 51.808594 C 155.636719 49.289062 157.867188 47.148438 160.300781 45.390625 C 161.519531 44.511719 162.796875 43.722656 164.125 43.019531 C 164.789062 42.671875 165.460938 42.339844 166.164062 42.03125 C 166.511719 41.878906 168.160156 41.242188 168.507812 41.140625 C 171.3125 40.425781 174.164062 42.121094 174.878906 44.929688 C 175.59375 47.734375 173.898438 50.585938 171.09375 51.300781"/><path fill="#FFF" d="M 149.597656 87.503906 C 150.640625 90.210938 153.679688 91.558594 156.386719 90.511719 C 159.089844 89.46875 160.4375 86.429688 159.394531 83.722656 C 158.347656 81.019531 155.308594 79.667969 152.605469 80.714844 C 149.898438 81.757812 148.554688 84.800781 149.597656 87.503906"/><path fill="#FBD66F" d="M 374.972656 168.042969 C 374.972656 190.335938 356.90625 208.402344 334.628906 208.402344 C 317.917969 208.402344 303.585938 198.25 297.457031 183.769531 C 303.925781 188.191406 311.75 190.777344 320.179688 190.777344 C 342.464844 190.777344 360.527344 172.703125 360.527344 150.417969 C 360.527344 144.835938 359.398438 139.527344 357.351562 134.695312 C 367.984375 141.960938 374.972656 154.183594 374.972656 168.042969"/><path fill="#FCE49D" d="M 360.527344 150.417969 C 360.527344 172.703125 342.464844 190.777344 320.179688 190.777344 C 311.75 190.777344 303.925781 188.191406 297.457031 183.769531 C 295.410156 178.941406 294.28125 173.625 294.28125 168.042969 C 294.28125 145.753906 312.339844 127.6875 334.628906 127.6875 C 343.050781 127.6875 350.875 130.269531 357.351562 134.695312 C 359.398438 139.527344 360.527344 144.835938 360.527344 150.417969"/></svg>